<?xml version="1.0" encoding="utf-8"?>
<!-- Generator: Adobe Illustrator 27.9.0, SVG Export Plug-In . SVG Version: 6.00 Build 0)  -->
<svg version="1.1" id="Capa_1" xmlns="http://www.w3.org/2000/svg" xmlns:xlink="http://www.w3.org/1999/xlink" x="0px" y="0px"
	 viewBox="0 0 270.09 329.54" style="enable-background:new 0 0 270.09 329.54;" xml:space="preserve">
<style type="text/css">
	.st0{fill:url(#SVGID_1_);stroke:#000000;stroke-miterlimit:10;}
	.st1{opacity:0.06;fill:#FFFFFF;stroke:#FFFFFF;stroke-width:3;stroke-miterlimit:10;}
	.st2{fill:#FFFFFF;}
</style>
<linearGradient id="SVGID_1_" gradientUnits="userSpaceOnUse" x1="65.0212" y1="121.0556" x2="347.9944" y2="297.6958">
	<stop  offset="0.1286" style="stop-color:#282E68"/>
	<stop  offset="0.8358" style="stop-color:#191F3B"/>
</linearGradient>
<rect x="9.61" class="st0" width="250.88" height="329.54"/>
<circle class="st1" cx="134.13" cy="161.5" r="46.27"/>
<g>
	<path class="st2" d="M139.41,152.04c0-3.65-2.16-5.81-5.76-5.81c-3.65,0-5.9,2.3-5.9,6.1h-6.14c0-7.15,5.09-12.39,12.19-12.39
		c7.2,0,11.91,4.8,11.91,11.62c0,9.36-10.85,9.98-10.85,18.53h-5.71C129.14,159.53,139.41,158.71,139.41,152.04z M127.94,176.19
		c0-2.45,1.82-4.03,3.98-4.03s4.03,1.58,4.03,4.03c0,2.4-1.87,3.98-4.03,3.98S127.94,178.59,127.94,176.19z"/>
</g>
</svg>
