<?xml version="1.0" encoding="utf-8"?>
<!-- Generator: Adobe Illustrator 27.9.0, SVG Export Plug-In . SVG Version: 6.00 Build 0)  -->
<svg version="1.1" id="Capa_1" xmlns="http://www.w3.org/2000/svg" xmlns:xlink="http://www.w3.org/1999/xlink" x="0px" y="0px"
	 viewBox="0 0 270.1 329.5" style="enable-background:new 0 0 270.1 329.5;" xml:space="preserve">
<style type="text/css">
	.st0{opacity:6.000000e-02;fill:#FFFFFF;stroke:#FFFFFF;stroke-width:3;stroke-miterlimit:10;enable-background:new    ;}
	.st1{fill:#FFFFFF;}
</style>
<circle class="st0" cx="134.1" cy="161.5" r="46.3"/>
<g>
	<path class="st1" d="M139.4,152c0-3.6-2.2-5.8-5.8-5.8c-3.6,0-5.9,2.3-5.9,6.1h-6.1c0-7.1,5.1-12.4,12.2-12.4
		c7.2,0,11.9,4.8,11.9,11.6c0,9.4-10.9,10-10.9,18.5h-5.7C129.1,159.5,139.4,158.7,139.4,152z M127.9,176.2c0-2.4,1.8-4,4-4
		s4,1.6,4,4c0,2.4-1.9,4-4,4S127.9,178.6,127.9,176.2z"/>
</g>
</svg>
